Exact Audio Copy V0.99 prebeta 4 from 23. January 2008

Отчёт EAC об извлечении, выполненном 3. октября 2008, 11:04

Waldo's People / No-Man's-Land

Дисковод: HL-DT-STDVDRAM GSA-H10N   Adapter: 0  ID: 0

Режим чтения                 : Достоверность
Использование точного потока : Да
Отключение кэша аудио        : Да
Использование указателей C2  : Нет

Коррекция смещения при чтении                     : 667
Способность читать области Lead-in и Lead-out     : Нет
Заполнение пропущенных сэмплов тишиной            : Да
Удаление блоков с тишиной в начале и конце        : Нет
При вычислениях CRC использовались нулевые сэмплы : Да
Интерфейс                                         : Установленный внешний ASPI-интерфейс

Выходной формат : Внутренние WAV-операции
Формат сэмплов  : 44.100 Гц; 16 бит; стерео


TOC извлечённого CD

     Трек |   Старт  | Длительность | Начальный сектор | Конечный сектор 
    ---------------------------------------------------------------------
       1  |  0:00.00 |    3:58.08   |           0      |      17857      
       2  |  3:58.08 |    3:39.47   |       17858      |      34329      
       3  |  7:37.55 |    3:24.59   |       34330      |      49688      
       4  | 11:02.39 |    3:30.28   |       49689      |      65466      
       5  | 14:32.67 |    3:37.10   |       65467      |      81751      
       6  | 18:10.02 |    3:13.46   |       81752      |      96272      
       7  | 21:23.48 |    4:56.35   |       96273      |     118507      
       8  | 26:20.08 |    3:47.65   |      118508      |     135597      
       9  | 30:07.73 |    3:39.51   |      135598      |     152073      
      10  | 33:47.49 |    3:33.44   |      152074      |     168092      
      11  | 37:21.18 |    7:26.42   |      168093      |     201584      
      12  | 44:47.60 |    6:34.15   |      201585      |     231149      
      13  | 53:54.00 |   13:55.74   |      242550      |     305248      


Характеристики диапазона извлечения и сообщения об ошибках

Выбранный диапазон

     Имя файла D:\Eurodance Uncompress\Waldo's People - No-Man's-Land (CD-Extra) (2000-APE)\Waldo's People - No-Man's-Land.wav

     Пиковый уровень 98.7 %
     Качество диапазона 100.0 %
     CRC копии BFBC4E1C
     Копирование... OK

Ошибок не произошло

Конец отчёта
